<?xml version="1.0" standalone="no"?>
<!DOCTYPE svg PUBLIC "-//W3C//DTD SVG 20010904//EN"
 "http://www.w3.org/TR/2001/REC-SVG-20010904/DTD/svg10.dtd">
<svg version="1.0" xmlns="http://www.w3.org/2000/svg"
 width="1200.000000pt" height="1200.000000pt" viewBox="0 0 1200.000000 1200.000000"
 preserveAspectRatio="xMidYMid meet">

<g transform="translate(0.000000,1200.000000) scale(0.100000,-0.100000)"
fill="#000000" stroke="none">
<path d="M2327 9817 c-19 -16 -25 -57 -13 -95 4 -13 3 -22 -3 -22 -7 0 -11
-915 -12 -2962 0 -1630 -1 -3310 -2 -3735 -1 -424 0 -774 3 -777 10 -9 544
-16 1470 -19 l905 -2 9 69 c8 60 7 71 -8 82 -14 10 -15 16 -7 33 14 26 12
-144 16 1490 2 766 6 1400 9 1407 5 12 66 14 398 9 216 -2 803 -7 1303 -11
501 -3 913 -9 918 -13 4 -4 9 -259 10 -567 7 -1635 18 -2498 31 -2511 10 -10
555 -18 1554 -21 l782 -3 0 36 c0 20 5 45 10 55 8 15 6 21 -7 29 -15 8 -16 12
-4 34 19 36 19 -89 -4 2612 -2 264 -7 896 -10 1405 -3 509 -7 1098 -10 1310
-2 212 -7 761 -11 1220 -4 459 -10 845 -15 858 -7 19 -16 22 -61 22 -557 3
-1744 11 -1933 14 -292 4 -328 1 -320 -24 3 -11 -1 -20 -11 -24 -15 -6 -16
-98 -8 -1224 10 -1361 10 -1340 -3 -1353 -13 -13 -123 -26 -161 -18 -18 4 -48
3 -67 -1 -19 -4 -37 -5 -40 -2 -3 4 -149 7 -323 8 -1234 7 -2008 19 -2016 33
-3 4 -7 318 -10 700 -3 381 -9 703 -12 716 -3 12 -1 26 5 30 6 3 9 10 6 15 -3
4 -5 92 -6 194 0 102 -4 188 -9 191 -4 3 -3 29 3 58 7 28 11 68 10 87 -1 19
-3 170 -5 335 l-3 300 -90 7 c-82 6 -761 18 -1825 33 -356 5 -418 4 -433 -8z"/>
</g>
</svg>
