<?xml version="1.0" standalone="no"?>
<!DOCTYPE svg PUBLIC "-//W3C//DTD SVG 20010904//EN"
 "http://www.w3.org/TR/2001/REC-SVG-20010904/DTD/svg10.dtd">
<svg version="1.0" xmlns="http://www.w3.org/2000/svg"
 width="1200.000000pt" height="1200.000000pt" viewBox="0 0 1200.000000 1200.000000"
 preserveAspectRatio="xMidYMid meet">

<g transform="translate(0.000000,1200.000000) scale(0.100000,-0.100000)"
fill="#000000" stroke="none">
<path d="M2240 5995 l0 -3935 1215 0 1215 0 0 1595 0 1595 1328 -2 1327 -3 3
-1593 2 -1592 1220 0 1220 0 0 3935 0 3935 -1220 0 -1220 0 0 -1375 0 -1375
-1330 0 -1330 0 0 1375 0 1375 -1215 0 -1215 0 0 -3935z m2230 2440 c4 -970 8
-1307 17 -1326 6 -15 26 -43 43 -62 62 -71 -25 -67 1450 -67 960 0 1342 3
1384 12 79 15 136 70 154 146 9 41 12 357 12 1328 l0 1274 1018 -3 1017 -2 3
-3737 2 -3738 -1020 0 -1020 0 0 1484 c0 1132 -3 1497 -12 1538 -10 41 -23 63
-58 98 -39 40 -53 47 -112 58 -90 17 -2623 17 -2700 1 -72 -16 -120 -50 -149
-107 l-24 -47 -3 -1513 -2 -1512 -1018 2 -1017 3 -3 3725 c-1 2049 0 3731 3
3738 3 10 210 12 1017 10 l1013 -3 5 -1300z"/>
</g>
</svg>
